<svg width="174" height="143" viewBox="0 0 174 143" fill="none" xmlns="http://www.w3.org/2000/svg">
<path d="M95.5901 5.88001C103.67 -0.309992 115.46 3.51003 118.36 13.28C120.23 19.58 126.09 23.84 132.66 23.67C142.84 23.41 150.12 33.43 146.73 43.04C144.54 49.23 146.78 56.13 152.19 59.85C160.58 65.62 160.58 78.01 152.19 83.79C146.78 87.51 144.54 94.41 146.73 100.6C150.12 110.2 142.84 120.23 132.66 119.97C126.09 119.8 120.23 124.06 118.36 130.36C115.46 140.12 103.68 143.95 95.5901 137.76C90.3801 133.76 83.1301 133.76 77.9101 137.76C69.8301 143.95 58.0401 140.13 55.1401 130.36C53.2701 124.06 47.4101 119.8 40.8401 119.97C30.6601 120.23 23.3801 110.21 26.7701 100.6C28.9601 94.41 26.7201 87.51 21.3101 83.79C12.9201 78.02 12.9201 65.63 21.3101 59.85C26.7201 56.13 28.9601 49.23 26.7701 43.04C23.3801 33.44 30.6601 23.41 40.8401 23.67C47.4101 23.84 53.2701 19.58 55.1401 13.28C58.0401 3.52003 69.8201 -0.309992 77.9101 5.88001C83.1201 9.88001 90.3701 9.88001 95.5901 5.88001Z" fill="white" stroke="#B5292C" stroke-width="4.25" stroke-miterlimit="10"/>
<path d="M163.42 72.88L170.17 92.43H3.33008L10.0801 72.88L3.33008 53.33H170.17L163.42 72.88Z" fill="white" stroke="black" stroke-width="4.25" stroke-miterlimit="10"/>
<path d="M86.7492 121.62C114.253 121.62 136.549 99.3238 136.549 71.82C136.549 44.3162 114.253 22.02 86.7492 22.02C59.2454 22.02 36.9492 44.3162 36.9492 71.82C36.9492 99.3238 59.2454 121.62 86.7492 121.62Z" fill="white" stroke="black" stroke-width="4.25" stroke-miterlimit="10"/>
<path d="M62.9249 68.7773H70.0932V49.0147C70.0932 48.1684 70.1181 47.2807 70.1679 46.3515L65.4637 50.2592C65.1318 50.5081 64.8083 50.6657 64.493 50.7321C64.1777 50.7985 63.879 50.8068 63.597 50.757C63.3149 50.6906 63.066 50.5911 62.8503 50.4583C62.6345 50.309 62.4686 50.1596 62.3525 50.0103L60.187 47.0982L71.288 37.6897H76.938V68.7773H83.1854V73.83H62.9249V68.7773ZM111.166 40.6019C111.166 41.0831 111.091 41.5228 110.942 41.921C110.809 42.3027 110.577 42.6428 110.245 42.9415C109.929 43.2236 109.515 43.4476 109 43.6136C108.502 43.7629 107.888 43.8376 107.158 43.8376H97.8246L96.6299 50.6574C97.3766 50.5247 98.0984 50.4251 98.7953 50.3587C99.4922 50.2758 100.164 50.2343 100.811 50.2343C102.703 50.2343 104.371 50.5247 105.814 51.1054C107.274 51.6696 108.494 52.4495 109.473 53.4451C110.469 54.4407 111.215 55.6105 111.713 56.9546C112.211 58.2987 112.46 59.7423 112.46 61.2855C112.46 63.2103 112.12 64.9692 111.439 66.5621C110.759 68.1385 109.813 69.4992 108.602 70.6441C107.407 71.7724 105.972 72.6519 104.296 73.2824C102.637 73.913 100.82 74.2283 98.8451 74.2283C97.7001 74.2283 96.605 74.1038 95.5596 73.8549C94.5142 73.6226 93.5352 73.3073 92.6226 72.9091C91.7265 72.4943 90.8886 72.0213 90.1087 71.4904C89.3288 70.9594 88.6319 70.4035 88.0179 69.8227L90.1336 66.9355C90.5816 66.3215 91.1624 66.0146 91.8759 66.0146C92.3239 66.0146 92.7636 66.1473 93.195 66.4128C93.6265 66.6783 94.116 66.977 94.6636 67.3088C95.2111 67.6241 95.85 67.9145 96.5801 68.18C97.3102 68.4455 98.1979 68.5782 99.2433 68.5782C100.322 68.5782 101.259 68.404 102.056 68.0555C102.852 67.6905 103.508 67.201 104.022 66.587C104.553 65.9565 104.943 65.2181 105.192 64.3718C105.458 63.509 105.59 62.588 105.59 61.609C105.59 59.734 105.051 58.2904 103.972 57.2782C102.91 56.2494 101.359 55.735 99.318 55.735C97.6421 55.735 95.9578 56.0503 94.2653 56.6808L90.0091 55.4861L93.0457 37.7146H111.166V40.6019Z" fill="#B5292C"/>
<path d="M78.1359 84.8083V99.83H74.1146V87.8243H70.8655C70.7392 89.6504 70.5547 91.2191 70.3119 92.5304C70.069 93.8417 69.7776 94.9539 69.4377 95.867C69.0977 96.7703 68.7189 97.4988 68.3012 98.0525C67.8835 98.5964 67.4367 99.019 66.9608 99.3201C66.4848 99.6115 65.9943 99.8057 65.4892 99.9029C64.9841 100 64.4741 100.049 63.9593 100.049C63.3571 100.049 62.9249 100 62.6626 99.9029C62.4003 99.8057 62.2692 99.6649 62.2692 99.4803V97.0326H63.1726C63.4834 97.0326 63.7942 96.9889 64.105 96.9014C64.4159 96.8043 64.717 96.61 65.0084 96.3186C65.3095 96.0272 65.5912 95.6096 65.8534 95.0656C66.1157 94.5217 66.3585 93.798 66.5819 92.8947C66.8053 91.9914 66.9996 90.8792 67.1647 89.5582C67.3299 88.2372 67.461 86.6539 67.5581 84.8083H78.1359ZM87.9712 84.5752C88.9328 84.5752 89.8167 84.7306 90.6229 85.0415C91.4388 85.3426 92.1382 85.7845 92.721 86.3673C93.3135 86.9501 93.77 87.6689 94.0906 88.5237C94.4208 89.3688 94.5859 90.3352 94.5859 91.4231C94.5859 91.7242 94.5714 91.9719 94.5422 92.1662C94.5131 92.3605 94.4645 92.5159 94.3965 92.6324C94.3285 92.749 94.2363 92.8316 94.1197 92.8801C94.0031 92.919 93.8526 92.9384 93.668 92.9384H84.6492C84.7755 94.3468 85.1737 95.3765 85.8439 96.0272C86.5239 96.678 87.4126 97.0034 88.5102 97.0034C89.0639 97.0034 89.5399 96.9403 89.9381 96.814C90.3461 96.678 90.7006 96.5323 91.0017 96.3769C91.3125 96.2118 91.5894 96.0661 91.8322 95.9398C92.0847 95.8038 92.3324 95.7358 92.5753 95.7358C92.8861 95.7358 93.1289 95.8524 93.3038 96.0855L94.4694 97.5425C94.042 98.0379 93.5709 98.4507 93.0561 98.781C92.5413 99.1015 92.007 99.3589 91.4534 99.5532C90.8997 99.7377 90.3412 99.864 89.7778 99.932C89.2145 100.01 88.6705 100.049 88.146 100.049C87.097 100.049 86.1159 99.8786 85.2029 99.5386C84.2995 99.1889 83.5079 98.679 82.8279 98.0088C82.1577 97.3288 81.6283 96.4886 81.2398 95.4882C80.8513 94.4877 80.657 93.3269 80.657 92.0059C80.657 90.986 80.8221 90.0244 81.1524 89.1211C81.4924 88.2177 81.978 87.4309 82.6094 86.7607C83.2408 86.0905 84.0081 85.5611 84.9115 85.1726C85.8148 84.7744 86.8347 84.5752 87.9712 84.5752ZM88.044 87.4018C87.0824 87.4018 86.3296 87.6786 85.7857 88.2323C85.2417 88.7762 84.8872 89.5485 84.722 90.5489H90.9871C90.9871 90.1313 90.9289 89.733 90.8123 89.3542C90.7055 88.9754 90.5306 88.6403 90.2878 88.3489C90.0449 88.0575 89.739 87.8292 89.3699 87.6641C89.0008 87.4892 88.5588 87.4018 88.044 87.4018ZM95.5701 84.8083H109.965V87.7369H104.778V99.83H100.757V87.7369H95.5701V84.8083Z" fill="black"/>
</svg>
