<svg width="141" height="134" viewBox="0 0 141 134" fill="none" xmlns="http://www.w3.org/2000/svg">
<path d="M81.75 111.66L85.38 115.29C88.98 118.89 94.8301 118.89 98.4301 115.29C102.03 111.69 102.03 105.84 98.4301 102.24L83.21 87.02" fill="white"/>
<path d="M81.75 111.66L85.38 115.29C88.98 118.89 94.8301 118.89 98.4301 115.29C102.03 111.69 102.03 105.84 98.4301 102.24L83.21 87.02" stroke="#B5292C" stroke-width="4.25" stroke-miterlimit="10"/>
<path d="M22.8409 74.78L13.2709 65.21C-1.05906 50.88 -1.05906 27.66 13.2709 13.33C27.6009 -0.999981 50.8209 -0.999981 65.1509 13.33L70.5709 18.75" fill="white"/>
<path d="M22.8409 74.78L13.2709 65.21C-1.05906 50.88 -1.05906 27.66 13.2709 13.33C27.6009 -0.999981 50.8209 -0.999981 65.1509 13.33L70.5709 18.75" stroke="#B5292C" stroke-width="4.25" stroke-miterlimit="10"/>
<path d="M79.6516 51.27C68.1216 62.8 51.6116 63.77 38.6016 50.75L76.0116 13.34C90.3416 -0.989971 113.562 -0.989971 127.892 13.34C142.222 27.67 142.222 50.89 127.892 65.22L120.752 72.36L90.4515 40.48C86.0515 44.88 85.2616 45.67 79.6616 51.27H79.6516Z" fill="white" stroke="#B5292C" stroke-width="4.25" stroke-miterlimit="10"/>
<path d="M45.6212 77.0036C48.8821 73.7428 48.882 68.4558 45.6212 65.195C42.3603 61.9341 37.0734 61.934 33.8125 65.1949L20.038 78.9693C16.7772 82.2302 16.7772 87.5172 20.038 90.7781C23.2989 94.039 28.5859 94.039 31.8468 90.7781L45.6212 77.0036Z" fill="white" stroke="#B5292C" stroke-width="4.25" stroke-miterlimit="10"/>
<path d="M57.4317 88.8155C60.6925 85.5546 60.6925 80.2677 57.4317 77.0068C54.1708 73.7459 48.8839 73.7459 45.623 77.0068L31.8486 90.7812C28.5877 94.0421 28.5877 99.329 31.8486 102.59C35.1094 105.851 40.3964 105.851 43.6572 102.59L57.4317 88.8155Z" fill="white" stroke="#B5292C" stroke-width="4.25" stroke-miterlimit="10"/>
<path d="M69.2423 100.627C72.5032 97.3665 72.5031 92.0795 69.2422 88.8186C65.9813 85.5578 60.6944 85.5578 57.4336 88.8186L43.6591 102.593C40.3983 105.854 40.3982 111.141 43.6591 114.402C46.92 117.663 52.207 117.663 55.4679 114.402L69.2423 100.627Z" fill="white" stroke="#B5292C" stroke-width="4.25" stroke-miterlimit="10"/>
<path d="M96.2617 73.98L111.482 89.2C115.082 92.8 120.932 92.8 124.532 89.2C128.132 85.6 128.132 79.75 124.532 76.15L109.312 60.93" fill="white"/>
<path d="M96.2617 73.98L111.482 89.2C115.082 92.8 120.932 92.8 124.532 89.2C128.132 85.6 128.132 79.75 124.532 76.15L109.312 60.93" stroke="#B5292C" stroke-width="4.25" stroke-miterlimit="10"/>
<path d="M83.2109 87.03L98.431 102.25C102.031 105.85 107.881 105.85 111.481 102.25C115.081 98.65 115.081 92.8 111.481 89.2L96.261 73.98" fill="white"/>
<path d="M83.2109 87.03L98.431 102.25C102.031 105.85 107.881 105.85 111.481 102.25C115.081 98.65 115.081 92.8 111.481 89.2L96.261 73.98" stroke="#B5292C" stroke-width="4.25" stroke-miterlimit="10"/>
<path d="M68.75 124.75L72.34 128.34C75.94 131.94 81.79 131.94 85.39 128.34C88.99 124.74 88.99 118.89 85.39 115.29L81.76 111.66" fill="white"/>
<path d="M68.75 124.75L72.34 128.34C75.94 131.94 81.79 131.94 85.39 128.34C88.99 124.74 88.99 118.89 85.39 115.29L81.76 111.66" stroke="#B5292C" stroke-width="4.25" stroke-miterlimit="10"/>
<path d="M81.0528 112.439C84.3136 109.178 84.3136 103.891 81.0528 100.631C77.7919 97.3696 72.505 97.3696 69.2441 100.631L55.4697 114.405C52.2088 117.666 52.2088 122.953 55.4696 126.214C58.7305 129.475 64.0175 129.474 67.2783 126.214L81.0528 112.439Z" fill="white" stroke="#B5292C" stroke-width="4.25" stroke-miterlimit="10"/>
</svg>
