<svg width="187" height="127" viewBox="0 0 187 127" fill="none" xmlns="http://www.w3.org/2000/svg">
<path d="M19.3691 66.8V100.2C19.3691 103.81 22.2992 106.74 25.9092 106.74H38.8291" stroke="black" stroke-width="4.25" stroke-miterlimit="10"/>
<path d="M75.0492 106.74H120.469V9.12C120.469 5.62 117.639 2.78998 114.139 2.78998H25.6991C22.1991 2.78998 19.3691 5.62 19.3691 9.12V21.78" stroke="black" stroke-width="4.25" stroke-miterlimit="10"/>
<path d="M120.471 25.63H145.691C149.321 25.63 152.761 27.25 155.061 30.06L181.181 61.79C182.971 63.96 183.941 66.69 183.941 69.5V98.8C183.941 103.18 180.391 106.73 176.021 106.73H170.321" stroke="black" stroke-width="4.25" stroke-miterlimit="10"/>
<path d="M69.9197 78.95V35.73C69.9197 28.68 64.1997 22.96 57.1497 22.96H2.17969V28.21C2.17969 36 8.48966 42.31 16.2797 42.31H38.6096" stroke="#B5292C" stroke-width="4.25" stroke-miterlimit="10"/>
<path d="M19.3691 42.31V46.05C19.3691 51.6 23.8692 56.1 29.4192 56.1H45.3391" stroke="#B5292C" stroke-width="4.25" stroke-miterlimit="10"/>
<path d="M32.3496 56.1V59.84C32.3496 65.39 36.8497 69.89 42.3997 69.89H69.9197" stroke="#B5292C" stroke-width="4.25" stroke-miterlimit="10"/>
<path d="M136.6 39.56V62.99H181.18" stroke="black" stroke-width="4.25" stroke-miterlimit="10"/>
<path d="M120.469 78.95H99.4492" stroke="black" stroke-width="4.25" stroke-miterlimit="10"/>
<path d="M120.469 92.53H89.8691" stroke="black" stroke-width="4.25" stroke-miterlimit="10"/>
<path d="M56.9401 124.85C66.9419 124.85 75.0502 116.742 75.0502 106.74C75.0502 96.7381 66.9419 88.63 56.9401 88.63C46.9382 88.63 38.8301 96.7381 38.8301 106.74C38.8301 116.742 46.9382 124.85 56.9401 124.85Z" stroke="black" stroke-width="4.25" stroke-miterlimit="10"/>
<path d="M152.21 124.85C162.211 124.85 170.32 116.742 170.32 106.74C170.32 96.7381 162.211 88.63 152.21 88.63C142.208 88.63 134.1 96.7381 134.1 106.74C134.1 116.742 142.208 124.85 152.21 124.85Z" stroke="black" stroke-width="4.25" stroke-miterlimit="10"/>
<path d="M152.209 113.42C155.898 113.42 158.889 110.429 158.889 106.74C158.889 103.051 155.898 100.06 152.209 100.06C148.52 100.06 145.529 103.051 145.529 106.74C145.529 110.429 148.52 113.42 152.209 113.42Z" stroke="#B5292C" stroke-width="4.25" stroke-miterlimit="10"/>
<path d="M56.9397 113.42C60.629 113.42 63.6198 110.429 63.6198 106.74C63.6198 103.051 60.629 100.06 56.9397 100.06C53.2504 100.06 50.2598 103.051 50.2598 106.74C50.2598 110.429 53.2504 113.42 56.9397 113.42Z" stroke="#B5292C" stroke-width="4.25" stroke-miterlimit="10"/>
</svg>
