<svg width="215" height="110" viewBox="0 0 215 110" fill="none" xmlns="http://www.w3.org/2000/svg">
<path d="M214.18 63.1801H63L74.1899 32.46L63 11.25H214.18V63.1801Z" fill="white"/>
<path d="M151.416 42.38H154.766L153.345 49.37H150.766L150.916 48.59C149.996 49.29 148.876 49.64 147.546 49.64C146.446 49.64 145.446 49.4 144.536 48.92C143.626 48.44 142.916 47.76 142.396 46.87C141.876 45.98 141.605 44.95 141.605 43.78C141.605 42.22 141.966 40.83 142.676 39.61C143.386 38.38 144.395 37.43 145.685 36.74C146.975 36.05 148.455 35.71 150.125 35.71C151.415 35.71 152.555 35.92 153.565 36.34C154.565 36.76 155.365 37.3701 155.965 38.1801L153.245 40.3199C152.815 39.7799 152.336 39.4001 151.806 39.1801C151.286 38.9601 150.665 38.84 149.945 38.84C149.035 38.84 148.245 39.0399 147.565 39.4399C146.885 39.8399 146.355 40.39 145.985 41.1C145.615 41.8 145.426 42.6 145.426 43.49C145.426 44.43 145.685 45.18 146.215 45.73C146.745 46.28 147.495 46.55 148.465 46.55C149.265 46.55 150.005 46.32 150.685 45.86L151.396 42.38H151.416Z" fill="#1C1C1B"/>
<path d="M159.485 48.89C158.485 48.39 157.716 47.7 157.166 46.8C156.626 45.91 156.355 44.89 156.355 43.74C156.355 42.21 156.706 40.83 157.416 39.6C158.126 38.37 159.115 37.42 160.385 36.73C161.655 36.04 163.105 35.7 164.725 35.7C166.075 35.7 167.255 35.95 168.255 36.45C169.255 36.95 170.025 37.64 170.575 38.54C171.115 39.43 171.385 40.45 171.385 41.6C171.385 43.13 171.035 44.51 170.325 45.74C169.615 46.97 168.625 47.92 167.355 48.61C166.085 49.3 164.636 49.64 163.016 49.64C161.666 49.64 160.485 49.39 159.485 48.89ZM165.565 45.86C166.205 45.44 166.696 44.87 167.036 44.17C167.376 43.47 167.556 42.6799 167.556 41.8199C167.556 40.9099 167.275 40.19 166.725 39.65C166.165 39.11 165.396 38.84 164.396 38.84C163.556 38.84 162.816 39.05 162.176 39.47C161.536 39.89 161.045 40.46 160.705 41.16C160.365 41.87 160.185 42.65 160.185 43.51C160.185 44.42 160.466 45.1401 161.016 45.6801C161.576 46.2201 162.345 46.49 163.345 46.49C164.185 46.49 164.925 46.28 165.565 45.86Z" fill="#1C1C1B"/>
<path d="M174.655 35.97H178.445L176.375 46.37H182.765L182.155 49.38H171.965L174.645 35.98L174.655 35.97Z" fill="#1C1C1B"/>
<path d="M186.336 35.97H192.156C193.536 35.97 194.726 36.2 195.736 36.65C196.746 37.1 197.516 37.75 198.066 38.6C198.606 39.45 198.876 40.45 198.876 41.6C198.876 43.16 198.526 44.52 197.816 45.7C197.106 46.87 196.126 47.78 194.856 48.42C193.596 49.06 192.146 49.38 190.506 49.38H183.656L186.336 35.98V35.97ZM190.626 46.35C191.546 46.35 192.336 46.16 193.006 45.77C193.676 45.38 194.186 44.84 194.526 44.16C194.866 43.48 195.046 42.7 195.046 41.83C195.046 40.96 194.766 40.23 194.206 39.73C193.646 39.24 192.816 38.99 191.736 38.99H189.516L188.056 46.34H190.626V46.35Z" fill="#1C1C1B"/>
<path d="M150.948 22.9301L144.338 33.47H141.398L139.008 22.9301H142.068L143.578 29.78L147.888 22.9301H150.958H150.948Z" fill="#1C1C1B"/>
<path d="M153.406 33.47H150.406L152.496 22.9301H155.496L153.406 33.47Z" fill="#1C1C1B"/>
<path d="M157.578 33.37C156.798 33.16 156.158 32.8901 155.668 32.5601L156.838 30.33C157.368 30.67 157.938 30.93 158.538 31.11C159.138 31.29 159.738 31.37 160.348 31.37C160.958 31.37 161.368 31.29 161.678 31.12C161.988 30.95 162.148 30.7301 162.148 30.4301C162.148 30.1801 162.008 29.98 161.718 29.84C161.428 29.7 160.988 29.55 160.388 29.39C159.708 29.21 159.138 29.03 158.688 28.84C158.238 28.65 157.848 28.37 157.518 27.99C157.188 27.61 157.028 27.11 157.028 26.48C157.028 25.73 157.238 25.07 157.648 24.5C158.058 23.93 158.648 23.4901 159.408 23.1801C160.168 22.8701 161.068 22.71 162.088 22.71C162.838 22.71 163.548 22.7899 164.198 22.9399C164.848 23.0999 165.408 23.32 165.888 23.61L164.808 25.8199C164.398 25.5599 163.938 25.36 163.448 25.23C162.948 25.09 162.438 25.03 161.918 25.03C161.328 25.03 160.858 25.1299 160.528 25.3199C160.188 25.5099 160.028 25.7601 160.028 26.0601C160.028 26.3201 160.178 26.52 160.468 26.66C160.758 26.8 161.208 26.95 161.828 27.11C162.508 27.28 163.078 27.46 163.518 27.64C163.968 27.82 164.348 28.1 164.668 28.47C164.988 28.84 165.148 29.3301 165.148 29.9301C165.148 30.6701 164.938 31.33 164.518 31.9C164.098 32.47 163.508 32.91 162.738 33.22C161.968 33.53 161.078 33.6899 160.068 33.6899C159.198 33.6899 158.368 33.58 157.578 33.37Z" fill="#1C1C1B"/>
<path d="M187.828 23.76C188.618 24.45 189.008 25.41 189.008 26.64C189.008 27.07 188.968 27.48 188.888 27.88L187.758 33.48H184.778L185.248 31.15H181.148L180.678 33.48H177.738L178.928 27.5C179.238 25.93 179.878 24.7499 180.848 23.9399C181.818 23.1299 183.068 22.73 184.588 22.73C185.958 22.73 187.028 23.08 187.818 23.77L187.828 23.76ZM185.708 28.84L185.938 27.6801C185.998 27.3801 186.028 27.11 186.028 26.87C186.028 26.32 185.878 25.9 185.588 25.62C185.288 25.34 184.868 25.2 184.318 25.2C183.658 25.2 183.118 25.39 182.718 25.76C182.308 26.13 182.028 26.73 181.868 27.55L181.608 28.85H185.718L185.708 28.84Z" fill="#1C1C1B"/>
<path d="M191.899 22.9301H194.879L193.249 31.11H198.279L197.799 33.47H189.789L191.899 22.9301Z" fill="#1C1C1B"/>
<path d="M150.948 22.9301L144.338 33.47H141.398L139.008 22.9301H142.068L143.578 29.78L147.888 22.9301H150.958H150.948Z" fill="#1C1C1B"/>
<path d="M153.406 33.47H150.406L152.496 22.9301H155.496L153.406 33.47Z" fill="#1C1C1B"/>
<path d="M157.578 33.37C156.798 33.16 156.158 32.8901 155.668 32.5601L156.838 30.33C157.368 30.67 157.938 30.93 158.538 31.11C159.138 31.29 159.738 31.37 160.348 31.37C160.958 31.37 161.368 31.29 161.678 31.12C161.988 30.95 162.148 30.7301 162.148 30.4301C162.148 30.1801 162.008 29.98 161.718 29.84C161.428 29.7 160.988 29.55 160.388 29.39C159.708 29.21 159.138 29.03 158.688 28.84C158.238 28.65 157.848 28.37 157.518 27.99C157.188 27.61 157.028 27.11 157.028 26.48C157.028 25.73 157.238 25.07 157.648 24.5C158.058 23.93 158.648 23.4901 159.408 23.1801C160.168 22.8701 161.068 22.71 162.088 22.71C162.838 22.71 163.548 22.7899 164.198 22.9399C164.848 23.0999 165.408 23.32 165.888 23.61L164.808 25.8199C164.398 25.5599 163.938 25.36 163.448 25.23C162.948 25.09 162.438 25.03 161.918 25.03C161.328 25.03 160.858 25.1299 160.528 25.3199C160.188 25.5099 160.028 25.7601 160.028 26.0601C160.028 26.3201 160.178 26.52 160.468 26.66C160.758 26.8 161.208 26.95 161.828 27.11C162.508 27.28 163.078 27.46 163.518 27.64C163.968 27.82 164.348 28.1 164.668 28.47C164.988 28.84 165.148 29.3301 165.148 29.9301C165.148 30.6701 164.938 31.33 164.518 31.9C164.098 32.47 163.508 32.91 162.738 33.22C161.968 33.53 161.078 33.6899 160.068 33.6899C159.198 33.6899 158.368 33.58 157.578 33.37Z" fill="#1C1C1B"/>
<path d="M174.966 22.9301L173.796 28.86C173.636 29.68 173.356 30.28 172.946 30.65C172.536 31.02 172.006 31.21 171.346 31.21C170.796 31.21 170.366 31.07 170.076 30.79C169.776 30.51 169.636 30.09 169.636 29.54C169.636 29.3 169.666 29.03 169.726 28.73L170.886 22.9301H167.906L166.776 28.53C166.696 28.92 166.656 29.33 166.656 29.77C166.656 31 167.046 31.95 167.836 32.65C168.626 33.34 169.696 33.6899 171.066 33.6899C172.596 33.6899 173.836 33.29 174.806 32.48C175.776 31.67 176.416 30.48 176.726 28.92L177.916 22.9399H174.976L174.966 22.9301Z" fill="#1C1C1B"/>
<path d="M138.605 38.9301C135.865 39.3201 133.135 39.94 131.085 40.7L130.806 39.35V39.3101C130.626 38.5501 129.616 38.16 128.036 38.25C125.346 38.4 120.685 39.79 119.945 39.29L119.855 39.04C119.915 38.79 120.265 38.4001 120.995 37.8101C124.075 35.3601 130.185 32.62 136.995 31.65L138.625 38.9301H138.605Z" fill="url(#paint0_linear_391_3797)"/>
<path d="M129.058 51.46C120.348 56.93 101.438 60.06 98.6881 53.91L95.3281 47.47C96.0581 48.5 97.4281 49.15 99.2281 49.49C105.808 50.73 114.638 49.18 122.398 45.92C122.528 45.87 122.648 45.81 122.768 45.76C124.228 45.13 125.508 44.5 126.548 43.88C128.288 42.84 129.448 41.89 130.118 41.08C130.678 40.4 130.898 39.81 130.808 39.35L131.088 40.7L132.488 47.39C132.798 48.29 131.798 49.74 129.058 51.46Z" fill="url(#paint1_linear_391_3797)"/>
<path d="M128.496 29.88C117.036 32.9 103.086 40.62 99.2257 49.49C97.4257 49.15 96.0556 48.5 95.3256 47.47L94.9456 46.73C94.6556 45.93 94.6557 44.95 95.0357 43.76C98.0357 34.28 114.786 25.48 126.966 22.27L128.506 29.87L128.496 29.88Z" fill="url(#paint2_linear_391_3797)"/>
<path d="M130.118 41.08C129.448 41.89 128.288 42.8401 126.548 43.8801C125.508 44.5001 124.228 45.1401 122.768 45.7601C122.648 45.8101 122.518 45.8701 122.398 45.9201L119.938 39.2901C120.688 39.7901 125.338 38.4001 128.028 38.2501C129.618 38.1601 130.618 38.5601 130.798 39.3101V39.35C130.888 39.81 130.678 40.39 130.118 41.08Z" fill="url(#paint3_linear_391_3797)"/>
<path d="M113.797 47.08H105.927C105.577 47.08 105.257 46.87 105.107 46.55C105.107 46.55 96.4867 24.66 96.0367 23.54C95.3567 21.86 93.6167 20.9 91.1367 20.85V20.15H101.437C102.467 20.15 103.397 20.78 103.777 21.74L113.797 47.08Z" fill="url(#paint4_linear_391_3797)"/>
<g style="mix-blend-mode:multiply">
<path d="M113.797 47.08H105.927C105.577 47.08 105.257 46.87 105.107 46.55C105.107 46.55 96.4867 24.66 96.0367 23.54C95.3567 21.86 93.6167 20.9 91.1367 20.85V20.15H101.437C102.467 20.15 103.397 20.78 103.777 21.74L113.797 47.08Z" fill="#AB2B2B"/>
</g>
<path d="M105.945 47.08H114.285C114.635 47.08 114.945 46.8801 115.095 46.5601L125.515 20.15H117.055C117.055 20.15 107.025 45.6901 106.805 46.1801C106.455 46.9401 106.245 47.0699 105.955 47.0699L105.945 47.08Z" fill="url(#paint5_linear_391_3797)"/>
<g style="mix-blend-mode:multiply">
<path d="M105.945 47.08H114.285C114.635 47.08 114.945 46.8801 115.095 46.5601L125.515 20.15H117.055C117.055 20.15 107.025 45.6901 106.805 46.1801C106.455 46.9401 106.245 47.0699 105.955 47.0699L105.945 47.08Z" fill="#CE2C28"/>
</g>
<path d="M41.8481 0.180054C19.0581 0.180054 0.578125 18.66 0.578125 41.45C0.578125 73.31 41.8481 109.98 41.8481 109.98C41.8481 109.98 83.0981 73.31 83.0981 41.45C83.0981 18.66 64.6381 0.180054 41.8481 0.180054ZM41.8481 63.48C29.6681 63.48 19.7982 53.6 19.7982 41.45C19.7982 29.3 29.6781 19.4 41.8481 19.4C54.0181 19.4 63.8982 29.28 63.8982 41.45C63.8982 53.6199 54.0181 63.48 41.8481 63.48Z" fill="#B5292C"/>
<defs>
<linearGradient id="paint0_linear_391_3797" x1="137.125" y1="35.11" x2="114.916" y2="42.9901" gradientUnits="userSpaceOnUse">
<stop stop-color="#BC9C5E"/>
<stop offset="0.05" stop-color="#AB8535"/>
<stop offset="0.23" stop-color="#F0D399"/>
<stop offset="0.41" stop-color="#D7B35D"/>
<stop offset="0.59" stop-color="#9A7725"/>
<stop offset="0.77" stop-color="#B98C28"/>
<stop offset="1" stop-color="#8B6817"/>
</linearGradient>
<linearGradient id="paint1_linear_391_3797" x1="126.708" y1="45.33" x2="102.968" y2="52.9" gradientUnits="userSpaceOnUse">
<stop stop-color="#BC9C5E"/>
<stop offset="0.05" stop-color="#AB8535"/>
<stop offset="0.23" stop-color="#F0D399"/>
<stop offset="0.41" stop-color="#D7B35D"/>
<stop offset="0.59" stop-color="#9A7725"/>
<stop offset="0.77" stop-color="#B98C28"/>
<stop offset="1" stop-color="#8B6817"/>
</linearGradient>
<linearGradient id="paint2_linear_391_3797" x1="96.9957" y1="42.89" x2="125.136" y2="29.49" gradientUnits="userSpaceOnUse">
<stop stop-color="#BC9C5E"/>
<stop offset="0.05" stop-color="#AB8535"/>
<stop offset="0.23" stop-color="#F0D399"/>
<stop offset="0.41" stop-color="#D7B35D"/>
<stop offset="0.59" stop-color="#9A7725"/>
<stop offset="0.77" stop-color="#B98C28"/>
<stop offset="1" stop-color="#8B6817"/>
</linearGradient>
<linearGradient id="paint3_linear_391_3797" x1="136.108" y1="37.2001" x2="121.268" y2="42.5701" gradientUnits="userSpaceOnUse">
<stop stop-color="#8F6C1B"/>
<stop offset="0.26" stop-color="#C19D50"/>
<stop offset="0.91" stop-color="#6D3E10"/>
<stop offset="1" stop-color="#D4AB50"/>
</linearGradient>
<linearGradient id="paint4_linear_391_3797" x1="102.497" y1="20.69" x2="102.427" y2="46.61" gradientUnits="userSpaceOnUse">
<stop stop-color="#BC9C5E"/>
<stop offset="0.05" stop-color="#AB8535"/>
<stop offset="0.23" stop-color="#F0D399"/>
<stop offset="0.41" stop-color="#D7B35D"/>
<stop offset="0.59" stop-color="#9A7725"/>
<stop offset="0.77" stop-color="#B98C28"/>
<stop offset="1" stop-color="#8B6817"/>
</linearGradient>
<linearGradient id="paint5_linear_391_3797" x1="115.055" y1="47.41" x2="116.275" y2="22.1" gradientUnits="userSpaceOnUse">
<stop stop-color="#BC9C5E"/>
<stop offset="0.05" stop-color="#AB8535"/>
<stop offset="0.23" stop-color="#F0D399"/>
<stop offset="0.41" stop-color="#D7B35D"/>
<stop offset="0.59" stop-color="#9A7725"/>
<stop offset="0.77" stop-color="#B98C28"/>
<stop offset="1" stop-color="#8B6817"/>
</linearGradient>
</defs>
</svg>
