<svg id="Слой_1" data-name="Слой 1" xmlns="http://www.w3.org/2000/svg" viewBox="0 0 35.67 35.67"><defs><style>.cls-1{fill:#b5292c;}</style></defs><path class="cls-1" d="M26.47,35.67H9.2A9.21,9.21,0,0,1,0,26.47V9.2A9.21,9.21,0,0,1,9.2,0H26.47a9.21,9.21,0,0,1,9.2,9.2V26.47A9.21,9.21,0,0,1,26.47,35.67ZM9.2,2.06A7.14,7.14,0,0,0,2.06,9.2V26.47A7.14,7.14,0,0,0,9.2,33.61H26.47a7.14,7.14,0,0,0,7.14-7.14V9.2a7.14,7.14,0,0,0-7.14-7.14Z"/><path class="cls-1" d="M17.84,28A10.21,10.21,0,1,1,28,17.84,10.21,10.21,0,0,1,17.84,28Zm0-16.91a6.71,6.71,0,1,0,6.7,6.71A6.72,6.72,0,0,0,17.84,11.13Z"/><circle class="cls-1" cx="28.34" cy="7.34" r="2.04"/></svg>