<svg id="Слой_1" data-name="Слой 1" xmlns="http://www.w3.org/2000/svg" viewBox="0 0 41.92 33.47"><path d="M17.17,23.83A4.82,4.82,0,1,0,22,28.65,4.82,4.82,0,0,0,17.17,23.83Zm0,6.8a2,2,0,1,1,2-2A2,2,0,0,1,17.17,30.63Z"/><path d="M34,23.83a4.82,4.82,0,1,0,4.81,4.82A4.82,4.82,0,0,0,34,23.83Zm0,6.8a2,2,0,1,1,2-2A2,2,0,0,1,34,30.63Z"/><polygon points="35.24 22.19 35.24 19.35 19.45 19.35 18.14 16.52 36.69 16.52 41.92 1.96 19.98 1.96 19.98 4.79 37.89 4.79 34.7 13.68 16.82 13.68 10.46 0 0 0 0 2.83 8.65 2.83 17.65 22.19 35.24 22.19"/></svg>