<svg xmlns="http://www.w3.org/2000/svg" xmlns:xlink="http://www.w3.org/1999/xlink" viewBox="0 0 246.75 85.03"><defs><style>.cls-1{isolation:isolate;}.cls-2{fill:#1c1c1b;}.cls-3{fill:url(#Безымянный_градиент_3);}.cls-4{fill:url(#Безымянный_градиент_3-2);}.cls-5{fill:url(#Безымянный_градиент_3-3);}.cls-6{fill:url(#Безымянный_градиент_4);}.cls-7{fill:url(#Безымянный_градиент_3-4);}.cls-8{fill:#ab2b2b;}.cls-10,.cls-8{mix-blend-mode:multiply;}.cls-9{fill:url(#Безымянный_градиент_3-5);}.cls-10{fill:#ce2c28;}</style><linearGradient id="Безымянный_градиент_3" x1="105.33" y1="34.24" x2="54.47" y2="52.29" gradientUnits="userSpaceOnUse"><stop offset="0" stop-color="#bc9c5e"/><stop offset="0.05" stop-color="#ab8535"/><stop offset="0.23" stop-color="#f0d399"/><stop offset="0.41" stop-color="#d7b35d"/><stop offset="0.59" stop-color="#9a7725"/><stop offset="0.77" stop-color="#b98c28"/><stop offset="1" stop-color="#8b6817"/></linearGradient><linearGradient id="Безымянный_градиент_3-2" x1="81.46" y1="57.66" x2="27.09" y2="75" xlink:href="#Безымянный_градиент_3"/><linearGradient id="Безымянный_градиент_3-3" x1="13.42" y1="52.07" x2="77.87" y2="21.37" xlink:href="#Безымянный_градиент_3"/><linearGradient id="Безымянный_градиент_4" x1="103" y1="39.03" x2="69.02" y2="51.33" gradientUnits="userSpaceOnUse"><stop offset="0" stop-color="#8f6c1b"/><stop offset="0.26" stop-color="#c19d50"/><stop offset="0.91" stop-color="#6d3e10"/><stop offset="1" stop-color="#9a7724"/><stop offset="1" stop-color="#d4ab50"/></linearGradient><linearGradient id="Безымянный_градиент_3-4" x1="26.02" y1="1.24" x2="25.87" y2="60.6" xlink:href="#Безымянный_градиент_3"/><linearGradient id="Безымянный_градиент_3-5" x1="54.8" y1="62.42" x2="57.59" y2="4.46" xlink:href="#Безымянный_градиент_3"/></defs><g class="cls-1"><g id="Слой_1" data-name="Слой 1"><path class="cls-2" d="M138.05,50.9h7.68l-3.25,16h-5.92l.35-1.8a12.3,12.3,0,0,1-7.71,2.42,14.49,14.49,0,0,1-6.89-1.65,12.24,12.24,0,0,1-4.91-4.69,13.65,13.65,0,0,1-1.8-7.08,18.59,18.59,0,0,1,2.46-9.56A17.17,17.17,0,0,1,124.94,38a21.39,21.39,0,0,1,10.18-2.36A20.27,20.27,0,0,1,143,37a13.08,13.08,0,0,1,5.5,4.21l-6.23,4.91A8.77,8.77,0,0,0,139,43.55a10.76,10.76,0,0,0-4.25-.76,10.6,10.6,0,0,0-5.46,1.38A9.34,9.34,0,0,0,125.65,48a11.57,11.57,0,0,0-1.28,5.48,7.07,7.07,0,0,0,1.82,5.13,6.83,6.83,0,0,0,5.16,1.89,8.87,8.87,0,0,0,5.08-1.58Z"/><path class="cls-2" d="M156.53,65.81a12.63,12.63,0,0,1-5.3-4.78,13.29,13.29,0,0,1-1.86-7,18.6,18.6,0,0,1,2.43-9.47A17.09,17.09,0,0,1,158.6,38a20.53,20.53,0,0,1,9.93-2.36,18,18,0,0,1,8.09,1.71,12.57,12.57,0,0,1,5.3,4.78,13.24,13.24,0,0,1,1.87,7,18.58,18.58,0,0,1-2.44,9.47,17.13,17.13,0,0,1-6.79,6.58,20.49,20.49,0,0,1-9.94,2.37A18,18,0,0,1,156.53,65.81Zm13.93-6.93A9.62,9.62,0,0,0,173.83,55,12.09,12.09,0,0,0,175,49.63a6.65,6.65,0,0,0-1.91-5,7.31,7.31,0,0,0-5.33-1.86,9.08,9.08,0,0,0-5.09,1.44,9.62,9.62,0,0,0-3.37,3.88,12.16,12.16,0,0,0-1.19,5.38,6.64,6.64,0,0,0,1.91,5,7.32,7.32,0,0,0,5.33,1.87A9.09,9.09,0,0,0,170.46,58.88Z"/><path class="cls-2" d="M191.28,36.21H200L195.23,60h14.64l-1.4,6.88H185.14Z"/><path class="cls-2" d="M218,36.21h13.33a19.86,19.86,0,0,1,8.2,1.56,11.87,11.87,0,0,1,5.32,4.47,12.39,12.39,0,0,1,1.87,6.86,17.7,17.7,0,0,1-2.44,9.38,16.32,16.32,0,0,1-6.77,6.23,21.78,21.78,0,0,1-9.95,2.19h-15.7ZM227.85,60a10.72,10.72,0,0,0,5.46-1.33A8.66,8.66,0,0,0,236.79,55,11.6,11.6,0,0,0,238,49.63a6,6,0,0,0-1.93-4.8,8.34,8.34,0,0,0-5.66-1.69h-5.08L222,60Z"/><path class="cls-2" d="M137,6.36,121.84,30.5h-6.73L109.63,6.36h7l3.45,15.69L130,6.36Z"/><path class="cls-2" d="M142.61,30.5h-6.86l4.79-24.14h6.87Z"/><path class="cls-2" d="M152.15,30.26a14.64,14.64,0,0,1-4.38-1.86l2.69-5.11a14.94,14.94,0,0,0,3.9,1.78,14.81,14.81,0,0,0,4.14.6,6.65,6.65,0,0,0,3.05-.57,1.73,1.73,0,0,0,1.09-1.57,1.48,1.48,0,0,0-1-1.34,18.43,18.43,0,0,0-3.06-1,32.18,32.18,0,0,1-3.89-1.25A7.05,7.05,0,0,1,152,18a5.18,5.18,0,0,1-1.12-3.45A7.48,7.48,0,0,1,152.33,10a9.06,9.06,0,0,1,4-3,16.27,16.27,0,0,1,6.14-1.07,20.59,20.59,0,0,1,4.83.54,13.41,13.41,0,0,1,3.86,1.53L168.71,13a11.53,11.53,0,0,0-3.12-1.36,13.29,13.29,0,0,0-3.5-.46,6.46,6.46,0,0,0-3.19.65,1.94,1.94,0,0,0-1.16,1.69,1.5,1.5,0,0,0,1,1.38,18.66,18.66,0,0,0,3.11,1,31.06,31.06,0,0,1,3.88,1.2,6.87,6.87,0,0,1,2.63,1.9,4.92,4.92,0,0,1,1.11,3.35A7.43,7.43,0,0,1,168,26.9a9.15,9.15,0,0,1-4.07,3A16.1,16.1,0,0,1,157.84,31,22,22,0,0,1,152.15,30.26Z"/><path class="cls-2" d="M221.43,8.25a8.35,8.35,0,0,1,2.71,6.59,14.37,14.37,0,0,1-.28,2.83L221.27,30.5h-6.82l1.06-5.34h-9.38l-1.07,5.34h-6.72l2.72-13.69a13.64,13.64,0,0,1,4.4-8.16A13,13,0,0,1,214,5.87,10.86,10.86,0,0,1,221.43,8.25Zm-4.85,11.63.52-2.66a9.45,9.45,0,0,0,.21-1.86,3.75,3.75,0,0,0-1-2.86,4,4,0,0,0-2.91-1,5.25,5.25,0,0,0-3.68,1.28,7.34,7.34,0,0,0-1.95,4.1l-.58,3Z"/><path class="cls-2" d="M230.76,6.36h6.83l-3.73,18.73h11.52l-1.1,5.41H225.93Z"/><path class="cls-2" d="M137,6.36,121.84,30.5h-6.73L109.63,6.36h7l3.45,15.69L130,6.36Z"/><path class="cls-2" d="M142.61,30.5h-6.86l4.79-24.14h6.87Z"/><path class="cls-2" d="M152.15,30.26a14.64,14.64,0,0,1-4.38-1.86l2.69-5.11a14.94,14.94,0,0,0,3.9,1.78,14.81,14.81,0,0,0,4.14.6,6.65,6.65,0,0,0,3.05-.57,1.73,1.73,0,0,0,1.09-1.57,1.48,1.48,0,0,0-1-1.34,18.43,18.43,0,0,0-3.06-1,32.18,32.18,0,0,1-3.89-1.25A7.05,7.05,0,0,1,152,18a5.18,5.18,0,0,1-1.12-3.45A7.48,7.48,0,0,1,152.33,10a9.06,9.06,0,0,1,4-3,16.27,16.27,0,0,1,6.14-1.07,20.59,20.59,0,0,1,4.83.54,13.41,13.41,0,0,1,3.86,1.53L168.71,13a11.53,11.53,0,0,0-3.12-1.36,13.29,13.29,0,0,0-3.5-.46,6.46,6.46,0,0,0-3.19.65,1.94,1.94,0,0,0-1.16,1.69,1.5,1.5,0,0,0,1,1.38,18.66,18.66,0,0,0,3.11,1,31.06,31.06,0,0,1,3.88,1.2,6.87,6.87,0,0,1,2.63,1.9,4.92,4.92,0,0,1,1.11,3.35A7.43,7.43,0,0,1,168,26.9a9.15,9.15,0,0,1-4.07,3A16.1,16.1,0,0,1,157.84,31,22,22,0,0,1,152.15,30.26Z"/><path class="cls-2" d="M192,6.36,189.3,20a7.34,7.34,0,0,1-2,4.1,5.23,5.23,0,0,1-3.67,1.28,4.1,4.1,0,0,1-2.92-1,3.79,3.79,0,0,1-1-2.86,10.19,10.19,0,0,1,.2-1.86l2.66-13.28h-6.83l-2.59,12.83a14.31,14.31,0,0,0-.27,2.83,8.28,8.28,0,0,0,2.71,6.58A10.78,10.78,0,0,0,183,31a13,13,0,0,0,8.58-2.77A13.69,13.69,0,0,0,196,20.05l2.73-13.69Z"/><path class="cls-3" d="M108.72,43a87.94,87.94,0,0,0-17.23,4.05L90.85,44l0-.09c-.4-1.72-2.7-2.63-6.34-2.43C78.33,41.79,67.67,45,66,43.82h0l-.21-.58c.13-.56.93-1.46,2.62-2.81,7.06-5.62,21-11.87,36.64-14.1Z"/><path class="cls-4" d="M86.84,71.7C66.9,84.21,23.58,91.4,17.3,77.3h0L9.59,62.55c1.68,2.37,4.82,3.86,8.94,4.64C33.59,70,53.82,66.47,71.59,59l.86-.36a74.82,74.82,0,0,0,8.65-4.31,32.39,32.39,0,0,0,8.17-6.41c1.29-1.57,1.78-2.91,1.58-4l.64,3.09L94.7,62.37h0C95.41,64.44,93.13,67.76,86.84,71.7Z"/><path class="cls-5" d="M85.56,22.27c-26.23,6.91-58.18,24.6-67,44.92-4.12-.78-7.26-2.27-8.94-4.64v0l-.87-1.66a10.38,10.38,0,0,1,.2-6.8C15.79,32.35,54.13,12.2,82,4.85Z"/><path class="cls-6" d="M89.27,47.93a32.39,32.39,0,0,1-8.17,6.41,74.82,74.82,0,0,1-8.65,4.31l-.86.36L66,43.82c1.71,1.16,12.37-2,18.53-2.37,3.64-.2,5.94.71,6.34,2.43l0,.09C91.05,45,90.56,46.36,89.27,47.93Z"/><path class="cls-7" d="M51.89,61.67h-18A2,2,0,0,1,32,60.45S12.24,10.32,11.21,7.77C9.66,3.93,5.68,1.72,0,1.6V0H23.58a5.75,5.75,0,0,1,5.36,3.65Z"/><path class="cls-8" d="M51.89,61.67h-18A2,2,0,0,1,32,60.45S12.24,10.32,11.21,7.77C9.66,3.93,5.68,1.72,0,1.6V0H23.58a5.75,5.75,0,0,1,5.36,3.65Z"/><path class="cls-9" d="M33.92,61.67H53a2,2,0,0,0,1.85-1.2L78.72,0H59.35s-23,58.49-23.47,59.62C35.08,61.36,34.59,61.67,33.92,61.67Z"/><path class="cls-10" d="M33.92,61.67H53a2,2,0,0,0,1.85-1.2L78.72,0H59.35s-23,58.49-23.47,59.62C35.08,61.36,34.59,61.67,33.92,61.67Z"/></g></g></svg>