<svg id="Слой_1" data-name="Слой 1" xmlns="http://www.w3.org/2000/svg" viewBox="0 0 23.85 23.85"><defs><style>.cls-1{fill:#fff;}</style></defs><path class="cls-1" d="M17.7,0H6.15A6.16,6.16,0,0,0,0,6.15V17.7a6.16,6.16,0,0,0,6.15,6.15H17.7a6.16,6.16,0,0,0,6.15-6.15V6.15A6.16,6.16,0,0,0,17.7,0Zm4.78,17.7a4.78,4.78,0,0,1-4.78,4.77H13V14.28h3.12l.49-3.58H13V8.63c0-1.84.91-1.91,1.81-1.91H16.7V3.53c-3.6-.32-4.95-.13-6.27,1.32-.9,1-1.08,2.28-1.08,4.55v1.3H6.19v3.58H9.35v8.19H6.15A4.78,4.78,0,0,1,1.38,17.7V6.15A4.78,4.78,0,0,1,6.15,1.37H17.7a4.79,4.79,0,0,1,4.78,4.78Z"/></svg>