<svg id="Слой_1" data-name="Слой 1" xmlns="http://www.w3.org/2000/svg" viewBox="0 0 35.67 35.67"><defs><style>.cls-1{fill:#b5292c;}</style></defs><path class="cls-1" d="M26.47,0H9.21A9.22,9.22,0,0,0,0,9.2V26.47a9.22,9.22,0,0,0,9.21,9.2H26.47a9.21,9.21,0,0,0,9.2-9.2V9.2A9.21,9.21,0,0,0,26.47,0Zm7.15,26.47a7.15,7.15,0,0,1-7.15,7.14h-7V21.35h4.66L24.88,16H19.49V12.9c0-2.74,1.35-2.85,2.71-2.85H25V5.27c-5.39-.47-7.41-.19-9.38,2C14.25,8.75,14,10.66,14,14.06v2H9.26v5.34H14V33.61H9.21a7.15,7.15,0,0,1-7.15-7.14V9.2A7.15,7.15,0,0,1,9.21,2.06H26.47A7.15,7.15,0,0,1,33.62,9.2Z"/></svg>