<svg width="175" height="142" viewBox="0 0 175 142" fill="none" xmlns="http://www.w3.org/2000/svg">
<path d="M53.9787 96.69C69.3543 96.69 81.8187 84.2256 81.8187 68.85C81.8187 53.4744 69.3543 41.01 53.9787 41.01C38.6031 41.01 26.1387 53.4744 26.1387 68.85C26.1387 84.2256 38.6031 96.69 53.9787 96.69Z" stroke="black" stroke-width="4.25" stroke-miterlimit="10"/>
<path d="M53.9787 81.19C60.7939 81.19 66.3187 75.6652 66.3187 68.85C66.3187 62.0348 60.7939 56.51 53.9787 56.51C47.1635 56.51 41.6387 62.0348 41.6387 68.85C41.6387 75.6652 47.1635 81.19 53.9787 81.19Z" stroke="black" stroke-width="4.25" stroke-miterlimit="10"/>
<path d="M102.88 51.07C116.289 51.07 127.16 40.1995 127.16 26.79C127.16 13.3805 116.289 2.51001 102.88 2.51001C89.4701 2.51001 78.5996 13.3805 78.5996 26.79C78.5996 40.1995 89.4701 51.07 102.88 51.07Z" stroke="black" stroke-width="4.25" stroke-miterlimit="10"/>
<path d="M102.88 34.33C107.044 34.33 110.42 30.9542 110.42 26.79C110.42 22.6258 107.044 19.25 102.88 19.25C98.7156 19.25 95.3398 22.6258 95.3398 26.79C95.3398 30.9542 98.7156 34.33 102.88 34.33Z" stroke="black" stroke-width="4.25" stroke-miterlimit="10"/>
<path d="M132.609 139.12C154.099 139.12 171.519 121.699 171.519 100.21C171.519 78.7206 154.099 61.3 132.609 61.3C111.12 61.3 93.6992 78.7206 93.6992 100.21C93.6992 121.699 111.12 139.12 132.609 139.12Z" stroke="black" stroke-width="4.25" stroke-miterlimit="10"/>
<path d="M2.26953 51.72L24.5595 87.03C30.6595 96.87 41.5496 103.43 53.9796 103.43C63.3096 103.43 72.1695 100.12 77.9995 93.73C87.1695 83.68 93.1695 74.15 93.9095 73.29C101.07 63.02 112.21 55.73 125.1 53.67L174.09 48.86" stroke="#B5292C" stroke-width="4.25" stroke-miterlimit="10"/>
<path d="M132.61 125.14C146.378 125.14 157.54 113.978 157.54 100.21C157.54 86.4416 146.378 75.28 132.61 75.28C118.841 75.28 107.68 86.4416 107.68 100.21C107.68 113.978 118.841 125.14 132.61 125.14Z" stroke="black" stroke-width="4.25" stroke-miterlimit="10"/>
</svg>
