<svg id="Слой_1" data-name="Слой 1" xmlns="http://www.w3.org/2000/svg" viewBox="0 0 23.85 23.85"><defs><style>.cls-1{fill:#fff;}</style></defs><path class="cls-1" d="M17.7,23.85H6.15A6.16,6.16,0,0,1,0,17.7V6.15A6.16,6.16,0,0,1,6.15,0H17.7a6.16,6.16,0,0,1,6.15,6.15V17.7A6.16,6.16,0,0,1,17.7,23.85ZM6.15,1.38A4.78,4.78,0,0,0,1.38,6.15V17.7a4.78,4.78,0,0,0,4.77,4.77H17.7a4.78,4.78,0,0,0,4.77-4.77V6.15A4.78,4.78,0,0,0,17.7,1.38Z"/><path class="cls-1" d="M11.92,18.75a6.83,6.83,0,1,1,6.83-6.82A6.83,6.83,0,0,1,11.92,18.75Zm0-11.31a4.49,4.49,0,1,0,4.49,4.49A4.49,4.49,0,0,0,11.92,7.44Z"/><circle class="cls-1" cx="18.94" cy="4.91" r="1.37"/></svg>