<svg id="Слой_1" data-name="Слой 1" xmlns="http://www.w3.org/2000/svg" viewBox="0 0 284.76 65.35"><defs><style>.cls-1{fill:#fff;}</style></defs><path class="cls-1" d="M68.69,36.87,68,33.45c-.2-.81-1.72-1.26-3.88-1.14a59.18,59.18,0,0,0-7,1.09c-3.92.76-6.18,1.16-7.3.71h-.42l-.24-.65c-.33-1.17.3-2.06,2.13-3.51,5.23-4.16,16-9.13,28.21-10.88l.86-.12,3.13,14.41-.92.13a65.19,65.19,0,0,0-12.87,3ZM64.76,30.5c2.8,0,4.59.92,5,2.57l0,.09L70,34.48a69.17,69.17,0,0,1,11.36-2.63L78.86,21c-11.54,1.8-21.57,6.46-26.48,10.37a13.19,13.19,0,0,0-1.32,1.17,43.09,43.09,0,0,0,5.69-.88A60.92,60.92,0,0,1,64,30.52Z"/><path class="cls-1" d="M51.57,33.22a.4.4,0,0,1-.16-.44"/><path class="cls-1" d="M14.58,51.94l-.7-.13c-3.52-.67-6-2-7.34-3.87l-.07-.12-.71-1.37a8.77,8.77,0,0,1,.14-5.73C11.41,23.3,42,8.07,62,2.81l.91-.24,3,15-.82.22A111.89,111.89,0,0,0,35,30.85C24.86,37.26,17.9,44.33,14.87,51.29ZM8,46.94c1,1.38,2.84,2.37,5.49,3,7.09-15.11,30.36-28.24,50.3-33.68L61.5,4.79c-19.57,5.36-48.67,20-53.89,36.47a7.18,7.18,0,0,0-.19,4.52Z"/><path class="cls-1" d="M8.84,47.4a5.05,5.05,0,0,1-.66-1.26"/><path class="cls-1" d="M53.76,45.92,49.13,33.46l1.35-1c.67.26,3.91-.36,6.27-.82A60.92,60.92,0,0,1,64,30.52c3.23-.17,5.32.75,5.73,2.55l0,.09a4.7,4.7,0,0,1-1.39,3.74h0A25.28,25.28,0,0,1,61.94,42a58.26,58.26,0,0,1-6.67,3.32l-.65.28ZM51.35,34.29l3.43,9.25A53.13,53.13,0,0,0,61,40.42a23.79,23.79,0,0,0,6-4.66h0c1-1.23,1.07-1.95,1-2.26v0c-.2-.81-1.72-1.26-3.88-1.14a59.18,59.18,0,0,0-7,1.09A42.74,42.74,0,0,1,51.35,34.29Z"/><path class="cls-1" d="M39.34,46.75H25.67a1.56,1.56,0,0,1-1.42-.93S9.28,7.82,8.5,5.89C7.32,3,4.31,1.3,0,1.21V0H17.87a4.37,4.37,0,0,1,4.07,2.76Z"/><path class="cls-1" d="M25.71,46.75H40.18a1.55,1.55,0,0,0,1.41-.91L59.67,0H45S27.59,44.34,27.2,45.2C26.59,46.51,26.22,46.75,25.71,46.75Z"/><path class="cls-1" d="M28.66,65.35a33.14,33.14,0,0,1-9.5-1.18c-3.49-1.06-5.8-2.81-6.86-5.21L6.48,47.83,8,46.9c1.07,1.51,3.16,2.57,6.21,3.15,10.85,2,25.69-.25,39.71-6.14l.64-.27A54.6,54.6,0,0,0,61,40.42a23.79,23.79,0,0,0,6-4.66c1-1.23,1.07-1.95,1-2.26l1.75-.35,2.91,13.91c.7,2.19-1.55,5-6.35,8C60.39,58.82,51.77,62,42.64,63.83A72.08,72.08,0,0,1,28.66,65.35ZM14,58.28c.86,1.87,2.78,3.28,5.74,4.18C30.4,65.72,53,61.33,65.35,53.59h0c5-3.12,5.86-5.24,5.59-6l0-.14v-.06L68.63,36.56l-.27.34A25.28,25.28,0,0,1,61.94,42a58.26,58.26,0,0,1-6.67,3.32l-.65.28c-14.34,6-29.56,8.35-40.74,6.25A16.4,16.4,0,0,1,10,50.61Z"/><path class="cls-1" d="M95,45.2l-1.12,5.62h-1l1-4.74H91.56l-.34,1.46a13.12,13.12,0,0,1-.61,2,2.64,2.64,0,0,1-.69,1,1.48,1.48,0,0,1-1,.32,2.85,2.85,0,0,1-.57-.08l.25-.91a.66.66,0,0,0,.21,0,.77.77,0,0,0,.57-.23,2.2,2.2,0,0,0,.45-.75,13.86,13.86,0,0,0,.43-1.43l.55-2.33Z"/><path class="cls-1" d="M96.56,45.2h1l-.81,4,3.81-4h1l-1.12,5.62h-1l.82-4-3.82,4h-1Z"/><path class="cls-1" d="M106.91,49.94h.81L107.3,52h-1l.24-1.19h-4.31L102,52h-1l.43-2.07h.19c.36,0,.67-.29.93-.82a11.36,11.36,0,0,0,.71-2.18l.41-1.74h4.12Zm-3.22-1a2.66,2.66,0,0,1-.61,1h2.8l.77-3.86h-2.2l-.24,1A18.53,18.53,0,0,1,103.69,48.92Z"/><path class="cls-1" d="M110.5,46.08l-.29,1.46h2.72l-.17.85H110l-.31,1.55h3.18l-.18.88h-4.21l1.12-5.62h4.1l-.17.88Z"/><path class="cls-1" d="M118.73,45.65a1.5,1.5,0,0,1,.56,1.24,2.27,2.27,0,0,1-.33,1.24,2.13,2.13,0,0,1-.93.79,3.46,3.46,0,0,1-1.42.28h-1.38l-.32,1.62h-1L115,45.2h2.16A2.46,2.46,0,0,1,118.73,45.65ZM117.82,48a1.17,1.17,0,0,0,.41-1,.81.81,0,0,0-.3-.68,1.52,1.52,0,0,0-.89-.23h-1.19l-.44,2.23h1.24A1.77,1.77,0,0,0,117.82,48Z"/><path class="cls-1" d="M127,46.08h-1.87l-.93,4.74h-1l.93-4.74H122.2l.18-.88h4.75Z"/><path class="cls-1" d="M128.89,46.08l-.29,1.46h2.72l-.17.85h-2.73l-.3,1.55h3.17l-.17.88h-4.21L128,45.2h4.1l-.18.88Z"/><path class="cls-1" d="M137.11,45.65a1.5,1.5,0,0,1,.56,1.24,2.36,2.36,0,0,1-.32,1.24,2.1,2.1,0,0,1-.94.79,3.42,3.42,0,0,1-1.42.28h-1.37l-.33,1.62h-1l1.12-5.62h2.17A2.43,2.43,0,0,1,137.11,45.65Zm-.9,2.32a1.2,1.2,0,0,0,.41-1,.79.79,0,0,0-.31-.68,1.5,1.5,0,0,0-.89-.23h-1.18l-.44,2.23H135A1.8,1.8,0,0,0,136.21,48Z"/><path class="cls-1" d="M145.29,45.2l-1.12,5.62h-1l.73-3.68-2.4,3h-.46l-1.29-3.12L139,50.82h-1l1.13-5.62H140l1.49,3.73,2.9-3.73Z"/><path class="cls-1" d="M147.12,50.6a2.11,2.11,0,0,1-.92-.85,2.33,2.33,0,0,1-.32-1.25,3.56,3.56,0,0,1,.42-1.72,3.15,3.15,0,0,1,1.22-1.21,3.54,3.54,0,0,1,1.8-.45,3.25,3.25,0,0,1,1.44.3,2.11,2.11,0,0,1,.92.85,2.33,2.33,0,0,1,.32,1.25,3.46,3.46,0,0,1-.43,1.72,3.06,3.06,0,0,1-1.21,1.21,3.54,3.54,0,0,1-1.8.45A3.25,3.25,0,0,1,147.12,50.6Zm2.74-.94a2.22,2.22,0,0,0,.81-.88,2.53,2.53,0,0,0,.28-1.2,1.45,1.45,0,0,0-.45-1.12,1.81,1.81,0,0,0-1.28-.42,2.33,2.33,0,0,0-1.21.32,2.12,2.12,0,0,0-.8.88,2.53,2.53,0,0,0-.28,1.2,1.45,1.45,0,0,0,.45,1.12,1.79,1.79,0,0,0,1.27.42A2.3,2.3,0,0,0,149.86,49.66Z"/><path class="cls-1" d="M157.51,46.08h-1.87l-.93,4.74h-1l.93-4.74h-1.83l.17-.88h4.75Z"/><path class="cls-1" d="M162.3,45.65a1.5,1.5,0,0,1,.56,1.24,2.27,2.27,0,0,1-.33,1.24,2,2,0,0,1-.93.79,3.46,3.46,0,0,1-1.42.28h-1.37l-.33,1.62h-1l1.13-5.62h2.16A2.46,2.46,0,0,1,162.3,45.65ZM161.39,48a1.17,1.17,0,0,0,.42-1,.82.82,0,0,0-.31-.68,1.5,1.5,0,0,0-.89-.23h-1.19L159,48.31h1.24A1.76,1.76,0,0,0,161.39,48Z"/><path class="cls-1" d="M167,49.52h-2.82l-.81,1.3h-1.11l3.64-5.62h1l1.4,5.62h-1Zm-.19-.82-.57-2.47-1.55,2.47Z"/><path class="cls-1" d="M175.27,45.2l-1.13,5.62h-1l.47-2.38h-2.9l-.48,2.38h-1l1.12-5.62h1.05l-.46,2.3h2.9l.46-2.3Z"/><path class="cls-1" d="M177.12,50.6a2.22,2.22,0,0,1-.94-.85,2.36,2.36,0,0,1-.33-1.25,3.57,3.57,0,0,1,.43-1.72,3.15,3.15,0,0,1,1.22-1.21,3.6,3.6,0,0,1,1.81-.45,3.3,3.3,0,0,1,1.29.24,1.83,1.83,0,0,1,.84.7l-.75.63a1.69,1.69,0,0,0-1.45-.65,2.26,2.26,0,0,0-1.23.32,2.15,2.15,0,0,0-.82.87,2.57,2.57,0,0,0-.29,1.21,1.45,1.45,0,0,0,.46,1.13,1.89,1.89,0,0,0,1.3.41,2.07,2.07,0,0,0,1.59-.65l.61.66a2.35,2.35,0,0,1-1,.68,3.62,3.62,0,0,1-1.3.23A3.31,3.31,0,0,1,177.12,50.6Z"/><path class="cls-1" d="M188.26,49.08a2.87,2.87,0,0,1-1.22,1,4.73,4.73,0,0,1-1.86.39l-.12.59h-.95l.12-.6a3.31,3.31,0,0,1-1.89-.6,1.77,1.77,0,0,1-.65-1.45,2.55,2.55,0,0,1,.42-1.45,2.94,2.94,0,0,1,1.21-1,4.83,4.83,0,0,1,1.88-.4l.11-.57h1l-.11.57a3.27,3.27,0,0,1,1.87.61,1.78,1.78,0,0,1,.66,1.46A2.59,2.59,0,0,1,188.26,49.08Zm-5.12.14a2.22,2.22,0,0,0,1.25.4l.64-3.25a3.1,3.1,0,0,0-1.72.57,1.6,1.6,0,0,0-.58,1.31A1.17,1.17,0,0,0,183.14,49.22Zm3.92-.16a1.59,1.59,0,0,0,.6-1.31c0-.84-.56-1.3-1.67-1.38l-.65,3.25A3,3,0,0,0,187.06,49.06Z"/><path class="cls-1" d="M191.19,46.08l-.29,1.46h2.72l-.17.85h-2.73l-.3,1.55h3.17l-.17.88h-4.21l1.12-5.62h4.1l-.18.88Z"/><path class="cls-1" d="M199.41,45.65a1.47,1.47,0,0,1,.56,1.24,2.36,2.36,0,0,1-.32,1.24,2.13,2.13,0,0,1-.93.79,3.51,3.51,0,0,1-1.43.28h-1.37l-.33,1.62h-1l1.12-5.62h2.17A2.43,2.43,0,0,1,199.41,45.65Zm-.9,2.32a1.2,1.2,0,0,0,.41-1,.79.79,0,0,0-.31-.68,1.46,1.46,0,0,0-.88-.23h-1.19l-.44,2.23h1.23A1.8,1.8,0,0,0,198.51,48Z"/><path class="cls-1" d="M206.43,45.2l-1.12,5.62h-1l.47-2.38h-2.9l-.47,2.38h-1.05l1.13-5.62h1L202,47.5h2.91l.45-2.3Z"/><path class="cls-1" d="M212,48.62a2,2,0,0,1-.33,1.15,2.09,2.09,0,0,1-1,.77,3.33,3.33,0,0,1-1.42.28h-2.42L208,45.2h1l-.38,1.9h1.48C211.39,47.1,212,47.61,212,48.62Zm-1.49,1.05a1.2,1.2,0,0,0,.41-.94.77.77,0,0,0-.25-.63,1.26,1.26,0,0,0-.8-.2H208.5L208.08,50h1.34A1.65,1.65,0,0,0,210.52,49.67Zm3.24-4.47h1l-1.12,5.62h-1Z"/><path class="cls-1" d="M217,45.2l.94,1.88,1.71-1.88h1.24l-2.43,2.7,1.44,2.92h-1.21l-1-2-1.88,2h-1.23l2.62-2.88-1.33-2.74Z"/><path class="cls-1" d="M228,46.08h-1.87l-.93,4.74h-1l.93-4.74h-1.83l.17-.88h4.75Z"/><path class="cls-1" d="M229.94,46.08l-.29,1.46h2.72l-.17.85h-2.73l-.3,1.55h3.17l-.17.88H228l1.12-5.62h4.1l-.18.88Z"/><path class="cls-1" d="M235,45.2l.94,1.88,1.71-1.88h1.24l-2.43,2.7,1.44,2.92h-1.21l-1-2-1.88,2h-1.23l2.62-2.88-1.33-2.74Z"/><path class="cls-1" d="M244.73,45.2l-1.12,5.62h-1l.48-2.38h-2.91l-.47,2.38h-1l1.12-5.62h1l-.46,2.3h2.91l.45-2.3Z"/><path class="cls-1" d="M246.56,50.6a2.11,2.11,0,0,1-.92-.85,2.33,2.33,0,0,1-.32-1.25,3.56,3.56,0,0,1,.42-1.72A3.15,3.15,0,0,1,247,45.57a3.54,3.54,0,0,1,1.8-.45,3.25,3.25,0,0,1,1.44.3,2.11,2.11,0,0,1,.92.85,2.33,2.33,0,0,1,.32,1.25,3.46,3.46,0,0,1-.43,1.72,3.06,3.06,0,0,1-1.21,1.21,3.56,3.56,0,0,1-1.8.45A3.25,3.25,0,0,1,246.56,50.6Zm2.74-.94a2.22,2.22,0,0,0,.81-.88,2.53,2.53,0,0,0,.28-1.2,1.45,1.45,0,0,0-.45-1.12,1.81,1.81,0,0,0-1.28-.42,2.33,2.33,0,0,0-1.21.32,2.12,2.12,0,0,0-.8.88,2.53,2.53,0,0,0-.28,1.2,1.45,1.45,0,0,0,.45,1.12,1.77,1.77,0,0,0,1.27.42A2.3,2.3,0,0,0,249.3,49.66Z"/><path class="cls-1" d="M257.77,45.2l-1.12,5.62h-1l.95-4.74h-2.22L254,47.54a12.08,12.08,0,0,1-.61,2,2.64,2.64,0,0,1-.69,1,1.46,1.46,0,0,1-1,.32,2.85,2.85,0,0,1-.57-.08l.25-.91a.66.66,0,0,0,.21,0,.77.77,0,0,0,.57-.23,2.2,2.2,0,0,0,.45-.75,11.74,11.74,0,0,0,.43-1.43l.55-2.33Z"/><path class="cls-1" d="M259.61,50.6a2.08,2.08,0,0,1-.93-.85,2.33,2.33,0,0,1-.32-1.25,3.46,3.46,0,0,1,.43-1.72A3.06,3.06,0,0,1,260,45.57a3.59,3.59,0,0,1,1.8-.45,3.19,3.19,0,0,1,1.44.3,2.19,2.19,0,0,1,.93.85,2.42,2.42,0,0,1,.32,1.25,3.57,3.57,0,0,1-.43,1.72,3.09,3.09,0,0,1-1.22,1.21,3.53,3.53,0,0,1-1.79.45A3.19,3.19,0,0,1,259.61,50.6Zm2.73-.94a2.22,2.22,0,0,0,.81-.88,2.53,2.53,0,0,0,.29-1.2,1.46,1.46,0,0,0-.46-1.12A1.81,1.81,0,0,0,261.7,46a2.29,2.29,0,0,0-1.2.32,2.22,2.22,0,0,0-.81.88,2.53,2.53,0,0,0-.28,1.2,1.45,1.45,0,0,0,.45,1.12,1.79,1.79,0,0,0,1.27.42A2.3,2.3,0,0,0,262.34,49.66Z"/><path class="cls-1" d="M269.81,46.08H267l-.92,4.74h-1l1.12-5.62H270Z"/><path class="cls-1" d="M270.9,45.2h1l-.81,4,3.81-4h1l-1.13,5.62h-1l.82-4-3.82,4h-1Z"/><path class="cls-1" d="M277.49,45.2h1l-.81,4,3.81-4h1l-1.12,5.62h-1l.82-4-3.82,4h-1Zm1.61-.61a.82.82,0,0,1-.33-.7s0-.12,0-.21h.66v.1a.45.45,0,0,0,.17.39.73.73,0,0,0,.49.14,1,1,0,0,0,.57-.16.75.75,0,0,0,.29-.47h.68a1.32,1.32,0,0,1-.5.86,1.78,1.78,0,0,1-1.09.29A1.66,1.66,0,0,1,279.1,44.59Z"/><path class="cls-1" d="M108.74,28.35a3.65,3.65,0,0,1,.62,2.12,4.67,4.67,0,0,1-2.26,4.2,10.82,10.82,0,0,1-5.89,1.44H91.43L95,18.32h9a8.14,8.14,0,0,1,4.58,1.08,3.51,3.51,0,0,1,1.59,3.09,4.37,4.37,0,0,1-.84,2.68A5.6,5.6,0,0,1,107,26.94,4,4,0,0,1,108.74,28.35Zm-5.15,3.59a1.8,1.8,0,0,0,.77-1.57,1.29,1.29,0,0,0-.56-1.14,2.82,2.82,0,0,0-1.53-.36H97.83l-.71,3.6h4.37A3.57,3.57,0,0,0,103.59,31.94ZM99.22,22l-.68,3.43h3.61a3.43,3.43,0,0,0,2-.52,1.78,1.78,0,0,0,.7-1.52c0-.93-.7-1.39-2.11-1.39Z"/><polygon class="cls-1" points="125.91 18.32 122.5 36.11 127.38 36.11 130.94 18.32 125.91 18.32"/><polygon class="cls-1" points="113.42 18.32 110.02 36.11 114.89 36.11 118.45 18.32 113.42 18.32"/><polygon class="cls-1" points="124.64 18.32 110.54 36.11 115.42 36.11 129.67 18.32 124.64 18.32"/><path class="cls-1" d="M145.05,28.4a3.86,3.86,0,0,1,.65,2.22,4.39,4.39,0,0,1-1.27,3.12A8.32,8.32,0,0,1,141,35.83a13.89,13.89,0,0,1-4.59.73,15.41,15.41,0,0,1-3.7-.44,13.14,13.14,0,0,1-3.43-1.36l2.21-3.51a9.45,9.45,0,0,0,2.4.94,10.49,10.49,0,0,0,2.58.33,6.62,6.62,0,0,0,3-.61,1.86,1.86,0,0,0,1.2-1.7c0-.89-.71-1.34-2.13-1.34H134l.74-3.69h4.21a2.86,2.86,0,0,0,1.73-.47,1.41,1.41,0,0,0,.66-1.2,1.31,1.31,0,0,0-.76-1.21,4.27,4.27,0,0,0-2.06-.42,9.94,9.94,0,0,0-2.37.32,13.41,13.41,0,0,0-2.53.9l-.74-3.81a16,16,0,0,1,6.4-1.4,11.42,11.42,0,0,1,3.71.57,6.3,6.3,0,0,1,2.65,1.63,3.56,3.56,0,0,1,1,2.48,4.1,4.1,0,0,1-.9,2.56,5.63,5.63,0,0,1-2.43,1.78A4,4,0,0,1,145.05,28.4Z"/><path class="cls-1" d="M167,18.32l-2.51,12.53a9.93,9.93,0,0,1-3.29,6,10,10,0,0,1-6.47,2,11.85,11.85,0,0,1-7.64-2.29l2.46-3.66A8.71,8.71,0,0,0,155,34.76a4.48,4.48,0,0,0,3-.95,5.46,5.46,0,0,0,1.53-3.14l.12-.64a6.35,6.35,0,0,1-2.17,1.41,6.88,6.88,0,0,1-2.58.47,6,6,0,0,1-4.36-1.56A5.93,5.93,0,0,1,149,25.94a11.75,11.75,0,0,1,.23-2.28l1.06-5.34h5l-1.09,5.44a6.33,6.33,0,0,0-.15,1.3,2.68,2.68,0,0,0,.71,2,2.79,2.79,0,0,0,2,.68,3.82,3.82,0,0,0,2.63-1,5.26,5.26,0,0,0,1.49-3L162,18.32Z"/><path class="cls-1" d="M182.59,19.72a6.12,6.12,0,0,1,2,4.85,10.09,10.09,0,0,1-.2,2.09l-1.9,9.45h-5l.78-3.94h-6.91l-.78,3.94h-5l2-10.09a10,10,0,0,1,3.24-6,9.53,9.53,0,0,1,6.31-2A8,8,0,0,1,182.59,19.72ZM179,28.28l.38-2a7.24,7.24,0,0,0,.15-1.38,2.78,2.78,0,0,0-.74-2.1,3,3,0,0,0-2.15-.72,3.9,3.9,0,0,0-2.71.94,5.45,5.45,0,0,0-1.43,3l-.43,2.18Z"/><path class="cls-1" d="M203.16,19.71a6.1,6.1,0,0,1,1.94,4.81,11.19,11.19,0,0,1-.22,2.14L203,36.11h-5l2-9.78a7.35,7.35,0,0,0,.15-1.4c0-1.86-.92-2.8-2.75-2.8a3.44,3.44,0,0,0-2.52,1,5.64,5.64,0,0,0-1.39,3l-1.19,6a5,5,0,0,1-4.94,4H184.5l.79-4h.79A1.41,1.41,0,0,0,187.47,31l1-5a10.26,10.26,0,0,1,3.19-6,9.22,9.22,0,0,1,6.19-2A7.7,7.7,0,0,1,203.16,19.71Z"/><path class="cls-1" d="M225.25,22.32h-8.16l-2.67,13.8h-5L213,18.33h13Z"/><path class="cls-1" d="M228.38,35.49a7.35,7.35,0,0,1-3.08-2.77,7.71,7.71,0,0,1-1.08-4.07,10.74,10.74,0,0,1,1.41-5.49,10,10,0,0,1,3.94-3.82A12,12,0,0,1,235.33,18,10.42,10.42,0,0,1,240,19a7.29,7.29,0,0,1,3.08,2.77,7.71,7.71,0,0,1,1.08,4.07,10.74,10.74,0,0,1-1.41,5.49,9.92,9.92,0,0,1-3.94,3.82,12,12,0,0,1-5.76,1.37A10.42,10.42,0,0,1,228.38,35.49Zm8.07-4a5.56,5.56,0,0,0,2-2.25,7,7,0,0,0,.69-3.11A3.84,3.84,0,0,0,238,23.22a4.24,4.24,0,0,0-3.09-1.08,5.23,5.23,0,0,0-3,.84,5.56,5.56,0,0,0-2,2.25,7.12,7.12,0,0,0-.68,3.11,3.87,3.87,0,0,0,1.1,2.89,4.24,4.24,0,0,0,3.09,1.08A5.23,5.23,0,0,0,236.45,31.47Z"/><path class="cls-1" d="M284.76,32.13l-1.5,7.58h-4.62l.71-3.59h-11.9l-.74,3.59h-4.63l1.53-7.58h2.16L267,26a10.11,10.11,0,0,1,3.23-6A9.5,9.5,0,0,1,276.55,18,8,8,0,0,1,282,19.71a6.09,6.09,0,0,1,2,4.84,10.8,10.8,0,0,1-.23,2.12l-1.09,5.46Zm-7.12,0,1.15-5.8a7.17,7.17,0,0,0,.15-1.39,2.73,2.73,0,0,0-.75-2.1,3,3,0,0,0-2.15-.7,3.82,3.82,0,0,0-2.68.95,5.42,5.42,0,0,0-1.44,3l-1.22,6Z"/><path class="cls-1" d="M261.4,19.69a6.15,6.15,0,0,1,2,4.83,10.32,10.32,0,0,1-.23,2.13l-1.91,9.47h-5l2-9.8a6.61,6.61,0,0,0,.16-1.4c0-1.86-.92-2.8-2.75-2.8a3.49,3.49,0,0,0-2.54,1,5.64,5.64,0,0,0-1.38,3l-1.2,6a5,5,0,0,1-4.95,4h-2.76l.79-4h.79a1.43,1.43,0,0,0,1.4-1.14l1-5a10.18,10.18,0,0,1,3.19-6,9.22,9.22,0,0,1,6.2-2.05A7.69,7.69,0,0,1,261.4,19.69Z"/></svg>